{
    "asset": {
        "generator": "COLLADA2GLTF",
        "version": "2.0"
    },
    "scenes": [
        {
            "nodes": [
                0
            ]
        }
    ],
    "scene": 0,
    "nodes": [
        {
            "children": [
                1
            ],
            "matrix": [
                1.0,
                0.0,
                0.0,
                0.0,
                0.0,
                0.0,
                -1.0,
                0.0,
                0.0,
                1.0,
                0.0,
                0.0,
                0.0,
                0.0,
                0.0,
                1.0
            ],
            "name": "Z_UP"
        },
        {
            "mesh": 0
        }
    ],
    "meshes": [
        {
            "primitives": [
                {
                    "attributes": {
                        "NORMAL": 1,
                        "POSITION": 2,
                        "TEXCOORD_0": 3
                    },
                    "indices": 0,
                    "mode": 4,
                    "material": 0
                },
                {
                    "attributes": {
                        "NORMAL": 5,
                        "POSITION": 6,
                        "TEXCOORD_0": 7
                    },
                    "indices": 4,
                    "mode": 4,
                    "material": 1
                },
                {
                    "attributes": {
                        "NORMAL": 9,
                        "POSITION": 10,
                        "TEXCOORD_0": 11
                    },
                    "indices": 8,
                    "mode": 4,
                    "material": 2
                },
                {
                    "attributes": {
                        "NORMAL": 13,
                        "POSITION": 14,
                        "TEXCOORD_0": 15
                    },
                    "indices": 12,
                    "mode": 4,
                    "material": 3
                },
                {
                    "attributes": {
                        "NORMAL": 17,
                        "POSITION": 18
                    },
                    "indices": 16,
                    "mode": 4,
                    "material": 4
                }
            ],
            "name": "geometry0"
        }
    ],
    "accessors": [
        {
            "bufferView": 0,
            "byteOffset": 0,
            "componentType": 5123,
            "count": 18,
            "max": [
                11
            ],
            "min": [
                0
            ],
            "type": "SCALAR"
        },
        {
            "bufferView": 1,
            "byteOffset": 0,
            "componentType": 5126,
            "count": 12,
            "max": [
                0.8018392324447632,
                0.5975399613380432,
                0.0
            ],
            "min": [
                -0.8018494844436646,
                -0.5975399613380432,
                0.0
            ],
            "type": "VEC3"
        },
        {
            "bufferView": 1,
            "byteOffset": 144,
            "componentType": 5126,
            "count": 12,
            "max": [
                4.83420991897583,
                -2.1054999828338625,
                6.668216705322266
            ],
            "min": [
                -11.3016996383667,
                -18.70009994506836,
                0.0
            ],
            "type": "VEC3"
        },
        {
            "bufferView": 2,
            "byteOffset": 0,
            "componentType": 5126,
            "count": 12,
            "max": [
                0.4548999965190888,
                0.6516000032424927
            ],
            "min": [
                0.0,
                0.22440004348754884
            ],
            "type": "VEC2"
        },
        {
            "bufferView": 0,
            "byteOffset": 36,
            "componentType": 5123,
            "count": 90,
            "max": [
                61
            ],
            "min": [
                0
            ],
            "type": "SCALAR"
        },
        {
            "bufferView": 1,
            "byteOffset": 288,
            "componentType": 5126,
            "count": 62,
            "max": [
                0.8018757104873657,
                0.8019822239875794,
                0.0
            ],
            "min": [
                -0.801877498626709,
                -0.8019734025001526,
                0.0
            ],
            "type": "VEC3"
        },
        {
            "bufferView": 1,
            "byteOffset": 1032,
            "componentType": 5126,
            "count": 62,
            "max": [
                7.659139633178711,
                -0.00019999999494757503,
                7.890779972076416
            ],
            "min": [
                -11.3016996383667,
                -18.70009994506836,
                0.0
            ],
            "type": "VEC3"
        },
        {
            "bufferView": 2,
            "byteOffset": 96,
            "componentType": 5126,
            "count": 62,
            "max": [
                0.6491000056266785,
                0.916800022125244
            ],
            "min": [
                0.3540000021457672,
                0.03090000152587891
            ],
            "type": "VEC2"
        },
        {
            "bufferView": 0,
            "byteOffset": 216,
            "componentType": 5123,
            "count": 42,
            "max": [
                21
            ],
            "min": [
                0
            ],
            "type": "SCALAR"
        },
        {
            "bufferView": 1,
            "byteOffset": 1776,
            "componentType": 5126,
            "count": 22,
            "max": [
                0.2754192054271698,
                0.1958425045013428,
                0.9926499724388124
            ],
            "min": [
                -0.2628602087497711,
                -0.195873498916626,
                0.9445222020149232
            ],
            "type": "VEC3"
        },
        {
            "bufferView": 1,
            "byteOffset": 2040,
            "componentType": 5126,
            "count": 22,
            "max": [
                7.659139633178711,
                -0.00019999999494757503,
                7.890779972076416
            ],
            "min": [
                -11.3016996383667,
                -18.70009994506836,
                4.978392124176025
            ],
            "type": "VEC3"
        },
        {
            "bufferView": 2,
            "byteOffset": 592,
            "componentType": 5126,
            "count": 22,
            "max": [
                0.3440000116825104,
                0.9574999809265136
            ],
            "min": [
                0.0005999999702908099,
                0.2998999953269959
            ],
            "type": "VEC2"
        },
        {
            "bufferView": 0,
            "byteOffset": 300,
            "componentType": 5123,
            "count": 6,
            "max": [
                3
            ],
            "min": [
                0
            ],
            "type": "SCALAR"
        },
        {
            "bufferView": 1,
            "byteOffset": 2304,
            "componentType": 5126,
            "count": 4,
            "max": [
                0.8018758296966553,
                0.5974907875061035,
                0.0
            ],
            "min": [
                0.8018758296966553,
                0.5974907279014587,
                0.0
            ],
            "type": "VEC3"
        },
        {
            "bufferView": 1,
            "byteOffset": 2352,
            "componentType": 5126,
            "count": 4,
            "max": [
                7.659139633178711,
                -2.4660000801086427,
                4.978438377380371
            ],
            "min": [
                1.8376199007034305,
                -10.278900146484377,
                0.0
            ],
            "type": "VEC3"
        },
        {
            "bufferView": 2,
            "byteOffset": 768,
            "componentType": 5126,
            "count": 4,
            "max": [
                0.25839999318122866,
                0.7839000225067139
            ],
            "min": [
                0.13369999825954438,
                0.7008999586105347
            ],
            "type": "VEC2"
        },
        {
            "bufferView": 0,
            "byteOffset": 312,
            "componentType": 5123,
            "count": 6,
            "max": [
                3
            ],
            "min": [
                0
            ],
            "type": "SCALAR"
        },
        {
            "bufferView": 1,
            "byteOffset": 2400,
            "componentType": 5126,
            "count": 4,
            "max": [
                0.0,
                0.0,
                -1.0
            ],
            "min": [
                0.0,
                0.0,
                -1.0
            ],
            "type": "VEC3"
        },
        {
            "bufferView": 1,
            "byteOffset": 2448,
            "componentType": 5126,
            "count": 4,
            "max": [
                7.659509658813477,
                0.0,
                0.0
            ],
            "min": [
                -11.301819801330569,
                -18.70059967041016,
                0.0
            ],
            "type": "VEC3"
        }
    ],
    "materials": [
        {
            "pbrMetallicRoughness": {
                "baseColorTexture": {
                    "index": 0
                },
                "metallicFactor": 0.0
            },
            "emissiveFactor": [
                0.0,
                0.0,
                0.0
            ],
            "name": "textureAtlas_5694990_1_eff"
        },
        {
            "pbrMetallicRoughness": {
                "baseColorTexture": {
                    "index": 1
                },
                "metallicFactor": 0.0
            },
            "emissiveFactor": [
                0.0,
                0.0,
                0.0
            ],
            "name": "textureAtlas_5694990_0_eff"
        },
        {
            "pbrMetallicRoughness": {
                "baseColorTexture": {
                    "index": 2
                },
                "metallicFactor": 0.0
            },
            "emissiveFactor": [
                0.0,
                0.0,
                0.0
            ],
            "name": "textureAtlas_5694990_2_eff"
        },
        {
            "pbrMetallicRoughness": {
                "baseColorTexture": {
                    "index": 3
                },
                "metallicFactor": 0.0
            },
            "emissiveFactor": [
                0.0,
                0.0,
                0.0
            ],
            "name": "textureAtlas_5694990_3_eff"
        },
        {
            "pbrMetallicRoughness": {
                "baseColorFactor": [
                    0.800000011920929,
                    0.800000011920929,
                    0.800000011920929,
                    1.0
                ],
                "metallicFactor": 0.0
            },
            "emissiveFactor": [
                0.0,
                0.0,
                0.0
            ],
            "name": "default_ai_0.2_sh_0.2_tr_0.0_dc_r_0.8_g_0.8_b_0.8_sc_r_1.0_g_1.0_b_1.0_ec_r_0.0_g_0.0_b_0_eff"
        }
    ],
    "textures": [
        {
            "sampler": 0,
            "source": 0
        },
        {
            "sampler": 0,
            "source": 1
        },
        {
            "sampler": 0,
            "source": 2
        },
        {
            "sampler": 0,
            "source": 3
        }
    ],
    "images": [
        {
            "uri": "data:image/jpeg;base64,"
        },
        {
            "uri": "data:image/jpeg;base64,"
        },
        {
            "uri": "data:image/jpeg;base64,"
        },
        {
            "uri": "data:image/jpeg;base64,"
        }
    ],
    "samplers": [
        {
            "magFilter": 9729,
            "minFilter": 9986,
            "wrapS": 10497,
            "wrapT": 10497
        }
    ],
    "bufferViews": [
        {
            "buffer": 0,
            "byteOffset": 3296,
            "byteLength": 324,
            "target": 34963
        },
        {
            "buffer": 0,
            "byteOffset": 0,
            "byteLength": 2496,
            "byteStride": 12,
            "target": 34962
        },
        {
            "buffer": 0,
            "byteOffset": 2496,
            "byteLength": 800,
            "byteStride": 8,
            "target": 34962
        }
    ],
    "buffers": [
        {
            "byteLength": 3620,
            "uri": "data:application/octet-stream;base64,"
        }
    ]
}
