{
    "asset": {
        "generator": "COLLADA2GLTF",
        "version": "2.0"
    },
    "scenes": [
        {
            "nodes": [
                0
            ]
        }
    ],
    "scene": 0,
    "nodes": [
        {
            "children": [
                1
            ],
            "matrix": [
                1.0,
                0.0,
                0.0,
                0.0,
                0.0,
                0.0,
                -1.0,
                0.0,
                0.0,
                1.0,
                0.0,
                0.0,
                0.0,
                0.0,
                0.0,
                1.0
            ],
            "name": "Z_UP"
        },
        {
            "mesh": 0
        }
    ],
    "meshes": [
        {
            "primitives": [
                {
                    "attributes": {
                        "NORMAL": 1,
                        "POSITION": 2,
                        "TEXCOORD_0": 3
                    },
                    "indices": 0,
                    "mode": 4,
                    "material": 0
                },
                {
                    "attributes": {
                        "NORMAL": 5,
                        "POSITION": 6,
                        "TEXCOORD_0": 7
                    },
                    "indices": 4,
                    "mode": 4,
                    "material": 1
                },
                {
                    "attributes": {
                        "NORMAL": 9,
                        "POSITION": 10,
                        "TEXCOORD_0": 11
                    },
                    "indices": 8,
                    "mode": 4,
                    "material": 2
                },
                {
                    "attributes": {
                        "NORMAL": 13,
                        "POSITION": 14,
                        "TEXCOORD_0": 15
                    },
                    "indices": 12,
                    "mode": 4,
                    "material": 3
                },
                {
                    "attributes": {
                        "NORMAL": 17,
                        "POSITION": 18,
                        "TEXCOORD_0": 19
                    },
                    "indices": 16,
                    "mode": 4,
                    "material": 4
                },
                {
                    "attributes": {
                        "NORMAL": 21,
                        "POSITION": 22,
                        "TEXCOORD_0": 23
                    },
                    "indices": 20,
                    "mode": 4,
                    "material": 5
                },
                {
                    "attributes": {
                        "NORMAL": 25,
                        "POSITION": 26,
                        "TEXCOORD_0": 27
                    },
                    "indices": 24,
                    "mode": 4,
                    "material": 6
                },
                {
                    "attributes": {
                        "NORMAL": 29,
                        "POSITION": 30,
                        "TEXCOORD_0": 31
                    },
                    "indices": 28,
                    "mode": 4,
                    "material": 7
                },
                {
                    "attributes": {
                        "NORMAL": 33,
                        "POSITION": 34,
                        "TEXCOORD_0": 35
                    },
                    "indices": 32,
                    "mode": 4,
                    "material": 8
                },
                {
                    "attributes": {
                        "NORMAL": 37,
                        "POSITION": 38
                    },
                    "indices": 36,
                    "mode": 4,
                    "material": 9
                }
            ],
            "name": "geometry0"
        }
    ],
    "accessors": [
        {
            "bufferView": 0,
            "byteOffset": 0,
            "componentType": 5123,
            "count": 6,
            "max": [
                3
            ],
            "min": [
                0
            ],
            "type": "SCALAR"
        },
        {
            "bufferView": 1,
            "byteOffset": 0,
            "componentType": 5126,
            "count": 4,
            "max": [
                -0.7897210121154785,
                -0.6134660840034485,
                0.0
            ],
            "min": [
                -0.7897210121154785,
                -0.6134660840034485,
                0.0
            ],
            "type": "VEC3"
        },
        {
            "bufferView": 1,
            "byteOffset": 48,
            "componentType": 5126,
            "count": 4,
            "max": [
                -21.719940185546876,
                -17.255298614501954,
                18.014720916748048
            ],
            "min": [
                -31.901559829711919,
                -30.362199783325197,
                0.0
            ],
            "type": "VEC3"
        },
        {
            "bufferView": 2,
            "byteOffset": 0,
            "componentType": 5126,
            "count": 4,
            "max": [
                0.597599983215332,
                0.4209999442100525
            ],
            "min": [
                0.30539998412132265,
                0.2628000378608704
            ],
            "type": "VEC2"
        },
        {
            "bufferView": 0,
            "byteOffset": 12,
            "componentType": 5123,
            "count": 225,
            "max": [
                148
            ],
            "min": [
                0
            ],
            "type": "SCALAR"
        },
        {
            "bufferView": 1,
            "byteOffset": 96,
            "componentType": 5126,
            "count": 149,
            "max": [
                0.7897220253944397,
                0.7897245287895203,
                1.0
            ],
            "min": [
                -0.7897192239761353,
                -0.9909175038337708,
                0.0
            ],
            "type": "VEC3"
        },
        {
            "bufferView": 1,
            "byteOffset": 1884,
            "componentType": 5126,
            "count": 149,
            "max": [
                2.432459831237793,
                11.195799827575684,
                18.014720916748048
            ],
            "min": [
                -31.901559829711919,
                -47.955299377441409,
                0.0
            ],
            "type": "VEC3"
        },
        {
            "bufferView": 2,
            "byteOffset": 32,
            "componentType": 5126,
            "count": 149,
            "max": [
                0.9670000672340392,
                0.9708999991416932
            ],
            "min": [
                0.00019999999494757503,
                0.0004000067710876465
            ],
            "type": "VEC2"
        },
        {
            "bufferView": 0,
            "byteOffset": 462,
            "componentType": 5123,
            "count": 105,
            "max": [
                68
            ],
            "min": [
                0
            ],
            "type": "SCALAR"
        },
        {
            "bufferView": 1,
            "byteOffset": 3672,
            "componentType": 5126,
            "count": 69,
            "max": [
                0.7763357162475586,
                0.7763366103172302,
                1.0
            ],
            "min": [
                -0.9944509267807008,
                -0.7897244095802307,
                0.0
            ],
            "type": "VEC3"
        },
        {
            "bufferView": 1,
            "byteOffset": 4500,
            "componentType": 5126,
            "count": 69,
            "max": [
                2.432459831237793,
                8.082599639892579,
                17.98230743408203
            ],
            "min": [
                -31.901559829711919,
                -23.86380004882813,
                0.0
            ],
            "type": "VEC3"
        },
        {
            "bufferView": 2,
            "byteOffset": 1224,
            "componentType": 5126,
            "count": 69,
            "max": [
                0.98389995098114,
                0.9646000266075134
            ],
            "min": [
                0.00009999999747378752,
                0.0003000497817993164
            ],
            "type": "VEC2"
        },
        {
            "bufferView": 0,
            "byteOffset": 672,
            "componentType": 5123,
            "count": 6,
            "max": [
                3
            ],
            "min": [
                0
            ],
            "type": "SCALAR"
        },
        {
            "bufferView": 1,
            "byteOffset": 5328,
            "componentType": 5126,
            "count": 4,
            "max": [
                -0.789719820022583,
                -0.6134676337242127,
                0.0
            ],
            "min": [
                -0.789719820022583,
                -0.6134676337242127,
                0.0
            ],
            "type": "VEC3"
        },
        {
            "bufferView": 1,
            "byteOffset": 5376,
            "componentType": 5126,
            "count": 4,
            "max": [
                -8.581560134887696,
                -30.362199783325197,
                14.435766220092774
            ],
            "min": [
                -21.719940185546876,
                -47.27529907226563,
                0.0
            ],
            "type": "VEC3"
        },
        {
            "bufferView": 2,
            "byteOffset": 1776,
            "componentType": 5126,
            "count": 4,
            "max": [
                0.31779998540878298,
                0.5985000133514404
            ],
            "min": [
                0.00039999998989515007,
                0.4043000340461731
            ],
            "type": "VEC2"
        },
        {
            "bufferView": 0,
            "byteOffset": 684,
            "componentType": 5123,
            "count": 33,
            "max": [
                12
            ],
            "min": [
                0
            ],
            "type": "SCALAR"
        },
        {
            "bufferView": 1,
            "byteOffset": 5424,
            "componentType": 5126,
            "count": 13,
            "max": [
                0.0,
                0.0,
                1.0
            ],
            "min": [
                0.0,
                0.0,
                1.0
            ],
            "type": "VEC3"
        },
        {
            "bufferView": 1,
            "byteOffset": 5580,
            "componentType": 5126,
            "count": 13,
            "max": [
                26.77117919921875,
                11.195799827575684,
                14.435766220092774
            ],
            "min": [
                -21.719940185546876,
                -47.955299377441409,
                14.435766220092774
            ],
            "type": "VEC3"
        },
        {
            "bufferView": 2,
            "byteOffset": 1808,
            "componentType": 5126,
            "count": 13,
            "max": [
                0.7963999509811401,
                0.6514999866485596
            ],
            "min": [
                0.0007999999797903001,
                0.0006999969482421875
            ],
            "type": "VEC2"
        },
        {
            "bufferView": 0,
            "byteOffset": 750,
            "componentType": 5123,
            "count": 6,
            "max": [
                3
            ],
            "min": [
                0
            ],
            "type": "SCALAR"
        },
        {
            "bufferView": 1,
            "byteOffset": 5736,
            "componentType": 5126,
            "count": 4,
            "max": [
                0.7831594347953796,
                0.6218209266662598,
                0.0
            ],
            "min": [
                0.7831594347953796,
                0.6218209266662598,
                0.0
            ],
            "type": "VEC3"
        },
        {
            "bufferView": 1,
            "byteOffset": 5784,
            "componentType": 5126,
            "count": 4,
            "max": [
                26.77117919921875,
                11.195799827575684,
                14.435766220092774
            ],
            "min": [
                -2.500699996948242,
                -25.671001434326173,
                14.255766868591309
            ],
            "type": "VEC3"
        },
        {
            "bufferView": 2,
            "byteOffset": 1912,
            "componentType": 5126,
            "count": 4,
            "max": [
                0.4997999966144562,
                0.830299973487854
            ],
            "min": [
                0.000699999975040555,
                0.4442999958992005
            ],
            "type": "VEC2"
        },
        {
            "bufferView": 0,
            "byteOffset": 762,
            "componentType": 5123,
            "count": 9,
            "max": [
                4
            ],
            "min": [
                0
            ],
            "type": "SCALAR"
        },
        {
            "bufferView": 1,
            "byteOffset": 5832,
            "componentType": 5126,
            "count": 5,
            "max": [
                0.0,
                0.0,
                1.0
            ],
            "min": [
                0.0,
                0.0,
                1.0
            ],
            "type": "VEC3"
        },
        {
            "bufferView": 1,
            "byteOffset": 5892,
            "componentType": 5126,
            "count": 5,
            "max": [
                -13.354589462280274,
                -10.75700092315674,
                18.014720916748048
            ],
            "min": [
                -31.901559829711919,
                -30.362199783325197,
                18.014720916748048
            ],
            "type": "VEC3"
        },
        {
            "bufferView": 2,
            "byteOffset": 1944,
            "componentType": 5126,
            "count": 5,
            "max": [
                0.5422999858856201,
                0.4481000304222107
            ],
            "min": [
                0.2777999937534332,
                0.19880002737045289
            ],
            "type": "VEC2"
        },
        {
            "bufferView": 0,
            "byteOffset": 780,
            "componentType": 5123,
            "count": 6,
            "max": [
                3
            ],
            "min": [
                0
            ],
            "type": "SCALAR"
        },
        {
            "bufferView": 1,
            "byteOffset": 5952,
            "componentType": 5126,
            "count": 4,
            "max": [
                0.5919328331947327,
                -0.8059874176979065,
                0.0
            ],
            "min": [
                0.5919328331947327,
                -0.8059874176979065,
                0.0
            ],
            "type": "VEC3"
        },
        {
            "bufferView": 1,
            "byteOffset": 6000,
            "componentType": 5126,
            "count": 4,
            "max": [
                26.77117919921875,
                -25.671001434326173,
                14.435766220092774
            ],
            "min": [
                -3.57155990600586,
                -47.955299377441409,
                1.0000000116860974e-7
            ],
            "type": "VEC3"
        },
        {
            "bufferView": 2,
            "byteOffset": 1984,
            "componentType": 5126,
            "count": 4,
            "max": [
                0.8030000329017639,
                0.4333000183105469
            ],
            "min": [
                0.4161999821662903,
                0.0004000067710876465
            ],
            "type": "VEC2"
        },
        {
            "bufferView": 0,
            "byteOffset": 792,
            "componentType": 5123,
            "count": 30,
            "max": [
                19
            ],
            "min": [
                0
            ],
            "type": "SCALAR"
        },
        {
            "bufferView": 1,
            "byteOffset": 6048,
            "componentType": 5126,
            "count": 20,
            "max": [
                0.7897177338600159,
                0.7897197008132935,
                0.0
            ],
            "min": [
                -0.7763329148292542,
                -0.789717435836792,
                0.0
            ],
            "type": "VEC3"
        },
        {
            "bufferView": 1,
            "byteOffset": 6288,
            "componentType": 5126,
            "count": 20,
            "max": [
                0.0,
                4.772900104522705,
                18.014720916748048
            ],
            "min": [
                -23.536209106445314,
                -30.362199783325197,
                0.0
            ],
            "type": "VEC3"
        },
        {
            "bufferView": 2,
            "byteOffset": 2016,
            "componentType": 5126,
            "count": 20,
            "max": [
                0.9874999523162842,
                0.9988999962806702
            ],
            "min": [
                0.00029999998514540493,
                0.24610000848770145
            ],
            "type": "VEC2"
        },
        {
            "bufferView": 0,
            "byteOffset": 852,
            "componentType": 5123,
            "count": 15,
            "max": [
                6
            ],
            "min": [
                0
            ],
            "type": "SCALAR"
        },
        {
            "bufferView": 1,
            "byteOffset": 6528,
            "componentType": 5126,
            "count": 7,
            "max": [
                0.0,
                0.0,
                -1.0
            ],
            "min": [
                0.0,
                0.0,
                -1.0
            ],
            "type": "VEC3"
        },
        {
            "bufferView": 1,
            "byteOffset": 6612,
            "componentType": 5126,
            "count": 7,
            "max": [
                26.77117919921875,
                11.195799827575684,
                1.0000000116860974e-7
            ],
            "min": [
                -31.901559829711919,
                -47.955299377441409,
                1.0000000116860974e-7
            ],
            "type": "VEC3"
        }
    ],
    "materials": [
        {
            "pbrMetallicRoughness": {
                "baseColorTexture": {
                    "index": 0
                },
                "metallicFactor": 0.0
            },
            "emissiveFactor": [
                0.0,
                0.0,
                0.0
            ],
            "name": "textureAtlas_14946555_8_eff"
        },
        {
            "pbrMetallicRoughness": {
                "baseColorTexture": {
                    "index": 1
                },
                "metallicFactor": 0.0
            },
            "emissiveFactor": [
                0.0,
                0.0,
                0.0
            ],
            "name": "textureAtlas_14946555_2_eff"
        },
        {
            "pbrMetallicRoughness": {
                "baseColorTexture": {
                    "index": 2
                },
                "metallicFactor": 0.0
            },
            "emissiveFactor": [
                0.0,
                0.0,
                0.0
            ],
            "name": "textureAtlas_14946555_0_eff"
        },
        {
            "pbrMetallicRoughness": {
                "baseColorTexture": {
                    "index": 3
                },
                "metallicFactor": 0.0
            },
            "emissiveFactor": [
                0.0,
                0.0,
                0.0
            ],
            "name": "textureAtlas_14946555_5_eff"
        },
        {
            "pbrMetallicRoughness": {
                "baseColorTexture": {
                    "index": 4
                },
                "metallicFactor": 0.0
            },
            "emissiveFactor": [
                0.0,
                0.0,
                0.0
            ],
            "name": "textureAtlas_14946555_7_eff"
        },
        {
            "pbrMetallicRoughness": {
                "baseColorTexture": {
                    "index": 5
                },
                "metallicFactor": 0.0
            },
            "emissiveFactor": [
                0.0,
                0.0,
                0.0
            ],
            "name": "textureAtlas_14946555_3_eff"
        },
        {
            "pbrMetallicRoughness": {
                "baseColorTexture": {
                    "index": 6
                },
                "metallicFactor": 0.0
            },
            "emissiveFactor": [
                0.0,
                0.0,
                0.0
            ],
            "name": "textureAtlas_14946555_6_eff"
        },
        {
            "pbrMetallicRoughness": {
                "baseColorTexture": {
                    "index": 7
                },
                "metallicFactor": 0.0
            },
            "emissiveFactor": [
                0.0,
                0.0,
                0.0
            ],
            "name": "textureAtlas_14946555_4_eff"
        },
        {
            "pbrMetallicRoughness": {
                "baseColorTexture": {
                    "index": 8
                },
                "metallicFactor": 0.0
            },
            "emissiveFactor": [
                0.0,
                0.0,
                0.0
            ],
            "name": "textureAtlas_14946555_1_eff"
        },
        {
            "pbrMetallicRoughness": {
                "baseColorFactor": [
                    0.800000011920929,
                    0.800000011920929,
                    0.800000011920929,
                    1.0
                ],
                "metallicFactor": 0.0
            },
            "emissiveFactor": [
                0.0,
                0.0,
                0.0
            ],
            "name": "default_ai_0.2_sh_0.2_tr_0.0_dc_r_0.8_g_0.8_b_0.8_sc_r_1.0_g_1.0_b_1.0_ec_r_0.0_g_0.0_b_0_eff"
        }
    ],
    "textures": [
        {
            "sampler": 0,
            "source": 0
        },
        {
            "sampler": 0,
            "source": 1
        },
        {
            "sampler": 0,
            "source": 2
        },
        {
            "sampler": 0,
            "source": 3
        },
        {
            "sampler": 0,
            "source": 4
        },
        {
            "sampler": 0,
            "source": 5
        },
        {
            "sampler": 0,
            "source": 6
        },
        {
            "sampler": 0,
            "source": 7
        },
        {
            "sampler": 0,
            "source": 8
        }
    ],
    "images": [
        {
            "uri": "data:image/jpeg;base64,"
        },
        {
            "uri": "data:image/jpeg;base64,"
        },
        {
            "uri": "data:image/jpeg;base64,"
        },
        {
            "uri": "data:image/jpeg;base64,"
        },
        {
            "uri": "data:image/jpeg;base64,"
        },
        {
            "uri": "data:image/jpeg;base64,"
        },
        {
            "uri": "data:image/jpeg;base64,"
        },
        {
            "uri": "data:image/jpeg;base64,"
        },
        {
            "uri": "data:image/jpeg;base64,"
        }
    ],
    "samplers": [
        {
            "magFilter": 9729,
            "minFilter": 9986,
            "wrapS": 10497,
            "wrapT": 10497
        }
    ],
    "bufferViews": [
        {
            "buffer": 0,
            "byteOffset": 8872,
            "byteLength": 882,
            "target": 34963
        },
        {
            "buffer": 0,
            "byteOffset": 0,
            "byteLength": 6696,
            "byteStride": 12,
            "target": 34962
        },
        {
            "buffer": 0,
            "byteOffset": 6696,
            "byteLength": 2176,
            "byteStride": 8,
            "target": 34962
        }
    ],
    "buffers": [
        {
            "byteLength": 9754,
            "uri": "data:application/octet-stream;base64,"
        }
    ]
}
