{
    "asset": {
        "generator": "COLLADA2GLTF",
        "version": "2.0"
    },
    "scenes": [
        {
            "nodes": [
                0
            ]
        }
    ],
    "scene": 0,
    "nodes": [
        {
            "children": [
                1
            ],
            "matrix": [
                1.0,
                0.0,
                0.0,
                0.0,
                0.0,
                0.0,
                -1.0,
                0.0,
                0.0,
                1.0,
                0.0,
                0.0,
                0.0,
                0.0,
                0.0,
                1.0
            ],
            "name": "Z_UP"
        },
        {
            "mesh": 0
        }
    ],
    "meshes": [
        {
            "primitives": [
                {
                    "attributes": {
                        "NORMAL": 1,
                        "POSITION": 2,
                        "TEXCOORD_0": 3
                    },
                    "indices": 0,
                    "mode": 4,
                    "material": 0
                },
                {
                    "attributes": {
                        "NORMAL": 5,
                        "POSITION": 6,
                        "TEXCOORD_0": 7
                    },
                    "indices": 4,
                    "mode": 4,
                    "material": 1
                },
                {
                    "attributes": {
                        "NORMAL": 9,
                        "POSITION": 10,
                        "TEXCOORD_0": 11
                    },
                    "indices": 8,
                    "mode": 4,
                    "material": 2
                },
                {
                    "attributes": {
                        "NORMAL": 13,
                        "POSITION": 14,
                        "TEXCOORD_0": 15
                    },
                    "indices": 12,
                    "mode": 4,
                    "material": 3
                },
                {
                    "attributes": {
                        "NORMAL": 17,
                        "POSITION": 18,
                        "TEXCOORD_0": 19
                    },
                    "indices": 16,
                    "mode": 4,
                    "material": 4
                },
                {
                    "attributes": {
                        "NORMAL": 21,
                        "POSITION": 22,
                        "TEXCOORD_0": 23
                    },
                    "indices": 20,
                    "mode": 4,
                    "material": 5
                },
                {
                    "attributes": {
                        "NORMAL": 25,
                        "POSITION": 26,
                        "TEXCOORD_0": 27
                    },
                    "indices": 24,
                    "mode": 4,
                    "material": 6
                },
                {
                    "attributes": {
                        "NORMAL": 29,
                        "POSITION": 30
                    },
                    "indices": 28,
                    "mode": 4,
                    "material": 7
                }
            ],
            "name": "geometry0"
        }
    ],
    "accessors": [
        {
            "bufferView": 0,
            "byteOffset": 0,
            "componentType": 5123,
            "count": 1188,
            "max": [
                773
            ],
            "min": [
                0
            ],
            "type": "SCALAR"
        },
        {
            "bufferView": 1,
            "byteOffset": 0,
            "componentType": 5126,
            "count": 774,
            "max": [
                1.0,
                0.9998441338539124,
                1.0
            ],
            "min": [
                -0.9999812245368958,
                -0.999929130077362,
                0.0
            ],
            "type": "VEC3"
        },
        {
            "bufferView": 1,
            "byteOffset": 9288,
            "componentType": 5126,
            "count": 774,
            "max": [
                32.50497055053711,
                8.6875,
                24.65999984741211
            ],
            "min": [
                -15.920479774475098,
                -40.502197265625,
                0.0
            ],
            "type": "VEC3"
        },
        {
            "bufferView": 2,
            "byteOffset": 0,
            "componentType": 5126,
            "count": 774,
            "max": [
                0.6462000012397766,
                0.9983000159263612
            ],
            "min": [
                0.00019999999494757503,
                0.0
            ],
            "type": "VEC2"
        },
        {
            "bufferView": 0,
            "byteOffset": 2376,
            "componentType": 5123,
            "count": 78,
            "max": [
                41
            ],
            "min": [
                0
            ],
            "type": "SCALAR"
        },
        {
            "bufferView": 1,
            "byteOffset": 18576,
            "componentType": 5126,
            "count": 42,
            "max": [
                0.8172746896743774,
                0.5756171345710754,
                1.0
            ],
            "min": [
                -0.8177192807197571,
                -0.8184819221496582,
                0.0
            ],
            "type": "VEC3"
        },
        {
            "bufferView": 1,
            "byteOffset": 19080,
            "componentType": 5126,
            "count": 42,
            "max": [
                30.78921890258789,
                7.839000225067139,
                24.65999984741211
            ],
            "min": [
                -15.353299140930176,
                -46.40219879150391,
                0.0
            ],
            "type": "VEC3"
        },
        {
            "bufferView": 2,
            "byteOffset": 6192,
            "componentType": 5126,
            "count": 42,
            "max": [
                0.866599977016449,
                0.8795000314712524
            ],
            "min": [
                0.19669999182224277,
                0.0004000067710876465
            ],
            "type": "VEC2"
        },
        {
            "bufferView": 0,
            "byteOffset": 2532,
            "componentType": 5123,
            "count": 78,
            "max": [
                51
            ],
            "min": [
                0
            ],
            "type": "SCALAR"
        },
        {
            "bufferView": 1,
            "byteOffset": 19584,
            "componentType": 5126,
            "count": 52,
            "max": [
                0.8320508003234863,
                0.8191528916358948,
                1.0
            ],
            "min": [
                -0.8175107836723328,
                -0.8174803853034973,
                0.0
            ],
            "type": "VEC3"
        },
        {
            "bufferView": 1,
            "byteOffset": 20208,
            "componentType": 5126,
            "count": 52,
            "max": [
                28.844968795776368,
                7.607800006866455,
                24.65999984741211
            ],
            "min": [
                -5.30502986907959,
                -46.40219879150391,
                0.0
            ],
            "type": "VEC3"
        },
        {
            "bufferView": 2,
            "byteOffset": 6528,
            "componentType": 5126,
            "count": 52,
            "max": [
                0.9810000658035278,
                0.997099995613098
            ],
            "min": [
                0.00009999999747378752,
                0.00010001659393310548
            ],
            "type": "VEC2"
        },
        {
            "bufferView": 0,
            "byteOffset": 2688,
            "componentType": 5123,
            "count": 312,
            "max": [
                115
            ],
            "min": [
                0
            ],
            "type": "SCALAR"
        },
        {
            "bufferView": 1,
            "byteOffset": 20832,
            "componentType": 5126,
            "count": 116,
            "max": [
                0.0,
                0.575616717338562,
                1.0
            ],
            "min": [
                -0.817722499370575,
                -0.8184775114059448,
                0.0
            ],
            "type": "VEC3"
        },
        {
            "bufferView": 1,
            "byteOffset": 22224,
            "componentType": 5126,
            "count": 116,
            "max": [
                32.50497055053711,
                4.387799739837647,
                24.583908081054689
            ],
            "min": [
                -25.5350284576416,
                -37.13589859008789,
                0.0
            ],
            "type": "VEC3"
        },
        {
            "bufferView": 2,
            "byteOffset": 6944,
            "componentType": 5126,
            "count": 116,
            "max": [
                0.8596999645233154,
                0.9932000041007996
            ],
            "min": [
                0.000699999975040555,
                0.0006999969482421875
            ],
            "type": "VEC2"
        },
        {
            "bufferView": 0,
            "byteOffset": 3312,
            "componentType": 5123,
            "count": 144,
            "max": [
                51
            ],
            "min": [
                0
            ],
            "type": "SCALAR"
        },
        {
            "bufferView": 1,
            "byteOffset": 23616,
            "componentType": 5126,
            "count": 52,
            "max": [
                0.5745363235473633,
                0.8184791207313538,
                1.0
            ],
            "min": [
                0.0,
                0.0,
                0.0
            ],
            "type": "VEC3"
        },
        {
            "bufferView": 1,
            "byteOffset": 24240,
            "componentType": 5126,
            "count": 52,
            "max": [
                20.529600143432618,
                0.8534999489784241,
                24.59000015258789
            ],
            "min": [
                -0.7185099720954895,
                -15.678799629211426,
                0.0
            ],
            "type": "VEC3"
        },
        {
            "bufferView": 2,
            "byteOffset": 7872,
            "componentType": 5126,
            "count": 52,
            "max": [
                0.9835000038146972,
                0.7524999976158142
            ],
            "min": [
                0.2667999863624573,
                0.33699995279312136
            ],
            "type": "VEC2"
        },
        {
            "bufferView": 0,
            "byteOffset": 3600,
            "componentType": 5123,
            "count": 6,
            "max": [
                3
            ],
            "min": [
                0
            ],
            "type": "SCALAR"
        },
        {
            "bufferView": 1,
            "byteOffset": 24864,
            "componentType": 5126,
            "count": 4,
            "max": [
                -0.5759531259536743,
                -0.8174827098846436,
                0.0
            ],
            "min": [
                -0.5759531259536743,
                -0.8174827098846436,
                0.0
            ],
            "type": "VEC3"
        },
        {
            "bufferView": 1,
            "byteOffset": 24912,
            "componentType": 5126,
            "count": 4,
            "max": [
                1.8385299444198609,
                -24.70219993591309,
                22.19803237915039
            ],
            "min": [
                -25.5350284576416,
                -43.98809814453125,
                1.0000000116860974e-7
            ],
            "type": "VEC3"
        },
        {
            "bufferView": 2,
            "byteOffset": 8288,
            "componentType": 5126,
            "count": 4,
            "max": [
                0.7343999743461609,
                0.9122999906539916
            ],
            "min": [
                0.3858999907970429,
                0.5277999639511108
            ],
            "type": "VEC2"
        },
        {
            "bufferView": 0,
            "byteOffset": 3612,
            "componentType": 5123,
            "count": 471,
            "max": [
                158
            ],
            "min": [
                0
            ],
            "type": "SCALAR"
        },
        {
            "bufferView": 1,
            "byteOffset": 24960,
            "componentType": 5126,
            "count": 159,
            "max": [
                0.0,
                0.0,
                1.0
            ],
            "min": [
                0.0,
                0.0,
                1.0
            ],
            "type": "VEC3"
        },
        {
            "bufferView": 1,
            "byteOffset": 26868,
            "componentType": 5126,
            "count": 159,
            "max": [
                30.78921890258789,
                3.5677998065948488,
                22.19803237915039
            ],
            "min": [
                -25.5350284576416,
                -46.40219879150391,
                22.19803237915039
            ],
            "type": "VEC3"
        },
        {
            "bufferView": 2,
            "byteOffset": 8320,
            "componentType": 5126,
            "count": 159,
            "max": [
                0.6753000020980835,
                0.7612999677658081
            ],
            "min": [
                0.0,
                0.0006999969482421875
            ],
            "type": "VEC2"
        },
        {
            "bufferView": 0,
            "byteOffset": 4554,
            "componentType": 5123,
            "count": 114,
            "max": [
                39
            ],
            "min": [
                0
            ],
            "type": "SCALAR"
        },
        {
            "bufferView": 1,
            "byteOffset": 28776,
            "componentType": 5126,
            "count": 40,
            "max": [
                0.0,
                0.0,
                -1.0
            ],
            "min": [
                0.0,
                0.0,
                -1.0
            ],
            "type": "VEC3"
        },
        {
            "bufferView": 1,
            "byteOffset": 29256,
            "componentType": 5126,
            "count": 40,
            "max": [
                32.50497055053711,
                8.6875,
                1.0000000116860974e-7
            ],
            "min": [
                -25.5350284576416,
                -46.40219879150391,
                1.0000000116860974e-7
            ],
            "type": "VEC3"
        }
    ],
    "materials": [
        {
            "pbrMetallicRoughness": {
                "baseColorTexture": {
                    "index": 0
                },
                "metallicFactor": 0.0
            },
            "emissiveFactor": [
                0.0,
                0.0,
                0.0
            ],
            "name": "textureAtlas_2849540_5_eff"
        },
        {
            "pbrMetallicRoughness": {
                "baseColorTexture": {
                    "index": 1
                },
                "metallicFactor": 0.0
            },
            "emissiveFactor": [
                0.0,
                0.0,
                0.0
            ],
            "name": "textureAtlas_2849540_1_eff"
        },
        {
            "pbrMetallicRoughness": {
                "baseColorTexture": {
                    "index": 2
                },
                "metallicFactor": 0.0
            },
            "emissiveFactor": [
                0.0,
                0.0,
                0.0
            ],
            "name": "textureAtlas_2849540_4_eff"
        },
        {
            "pbrMetallicRoughness": {
                "baseColorTexture": {
                    "index": 3
                },
                "metallicFactor": 0.0
            },
            "emissiveFactor": [
                0.0,
                0.0,
                0.0
            ],
            "name": "textureAtlas_2849540_2_eff"
        },
        {
            "pbrMetallicRoughness": {
                "baseColorTexture": {
                    "index": 4
                },
                "metallicFactor": 0.0
            },
            "emissiveFactor": [
                0.0,
                0.0,
                0.0
            ],
            "name": "textureAtlas_2849540_0_eff"
        },
        {
            "pbrMetallicRoughness": {
                "baseColorTexture": {
                    "index": 5
                },
                "metallicFactor": 0.0
            },
            "emissiveFactor": [
                0.0,
                0.0,
                0.0
            ],
            "name": "textureAtlas_2849540_6_eff"
        },
        {
            "pbrMetallicRoughness": {
                "baseColorTexture": {
                    "index": 6
                },
                "metallicFactor": 0.0
            },
            "emissiveFactor": [
                0.0,
                0.0,
                0.0
            ],
            "name": "textureAtlas_2849540_3_eff"
        },
        {
            "pbrMetallicRoughness": {
                "baseColorFactor": [
                    0.800000011920929,
                    0.800000011920929,
                    0.800000011920929,
                    1.0
                ],
                "metallicFactor": 0.0
            },
            "emissiveFactor": [
                0.0,
                0.0,
                0.0
            ],
            "name": "default_ai_0.2_sh_0.2_tr_0.0_dc_r_0.8_g_0.8_b_0.8_sc_r_1.0_g_1.0_b_1.0_ec_r_0.0_g_0.0_b_0_eff"
        }
    ],
    "textures": [
        {
            "sampler": 0,
            "source": 0
        },
        {
            "sampler": 0,
            "source": 1
        },
        {
            "sampler": 0,
            "source": 2
        },
        {
            "sampler": 0,
            "source": 3
        },
        {
            "sampler": 0,
            "source": 4
        },
        {
            "sampler": 0,
            "source": 5
        },
        {
            "sampler": 0,
            "source": 6
        }
    ],
    "images": [
        {
            "uri": "data:image/jpeg;base64,"
        },
        {
            "uri": "data:image/jpeg;base64,"
        },
        {
            "uri": "data:image/jpeg;base64,"
        },
        {
            "uri": "data:image/jpeg;base64,"
        },
        {
            "uri": "data:image/jpeg;base64,"
        },
        {
            "uri": "data:image/jpeg;base64,"
        },
        {
            "uri": "data:image/jpeg;base64,"
        }
    ],
    "samplers": [
        {
            "magFilter": 9729,
            "minFilter": 9986,
            "wrapS": 10497,
            "wrapT": 10497
        }
    ],
    "bufferViews": [
        {
            "buffer": 0,
            "byteOffset": 39328,
            "byteLength": 4782,
            "target": 34963
        },
        {
            "buffer": 0,
            "byteOffset": 0,
            "byteLength": 29736,
            "byteStride": 12,
            "target": 34962
        },
        {
            "buffer": 0,
            "byteOffset": 29736,
            "byteLength": 9592,
            "byteStride": 8,
            "target": 34962
        }
    ],
    "buffers": [
        {
            "byteLength": 44110,
            "uri": "data:application/octet-stream;base64,"
        }
    ]
}
