{
    "asset": {
        "generator": "COLLADA2GLTF",
        "version": "2.0"
    },
    "scenes": [
        {
            "nodes": [
                0
            ]
        }
    ],
    "scene": 0,
    "nodes": [
        {
            "children": [
                1
            ],
            "matrix": [
                1.0,
                0.0,
                0.0,
                0.0,
                0.0,
                0.0,
                -1.0,
                0.0,
                0.0,
                1.0,
                0.0,
                0.0,
                0.0,
                0.0,
                0.0,
                1.0
            ],
            "name": "Z_UP"
        },
        {
            "mesh": 0
        }
    ],
    "meshes": [
        {
            "primitives": [
                {
                    "attributes": {
                        "NORMAL": 1,
                        "POSITION": 2,
                        "TEXCOORD_0": 3
                    },
                    "indices": 0,
                    "mode": 4,
                    "material": 0
                },
                {
                    "attributes": {
                        "NORMAL": 5,
                        "POSITION": 6,
                        "TEXCOORD_0": 7
                    },
                    "indices": 4,
                    "mode": 4,
                    "material": 1
                },
                {
                    "attributes": {
                        "NORMAL": 9,
                        "POSITION": 10,
                        "TEXCOORD_0": 11
                    },
                    "indices": 8,
                    "mode": 4,
                    "material": 2
                },
                {
                    "attributes": {
                        "NORMAL": 13,
                        "POSITION": 14
                    },
                    "indices": 12,
                    "mode": 4,
                    "material": 3
                }
            ],
            "name": "geometry0"
        }
    ],
    "accessors": [
        {
            "bufferView": 0,
            "byteOffset": 0,
            "componentType": 5123,
            "count": 12,
            "max": [
                7
            ],
            "min": [
                0
            ],
            "type": "SCALAR"
        },
        {
            "bufferView": 1,
            "byteOffset": 0,
            "componentType": 5126,
            "count": 8,
            "max": [
                0.6293038129806519,
                0.777158796787262,
                0.0
            ],
            "min": [
                -0.6293045282363892,
                -0.7771595120429993,
                0.0
            ],
            "type": "VEC3"
        },
        {
            "bufferView": 1,
            "byteOffset": 96,
            "componentType": 5126,
            "count": 8,
            "max": [
                9.595389366149905,
                4.085700035095215,
                4.286565780639648
            ],
            "min": [
                0.0,
                -5.61870002746582,
                0.0
            ],
            "type": "VEC3"
        },
        {
            "bufferView": 2,
            "byteOffset": 0,
            "componentType": 5126,
            "count": 8,
            "max": [
                0.23339998722076417,
                0.911899983882904
            ],
            "min": [
                0.0843999981880188,
                0.0976000428199768
            ],
            "type": "VEC2"
        },
        {
            "bufferView": 0,
            "byteOffset": 24,
            "componentType": 5123,
            "count": 12,
            "max": [
                7
            ],
            "min": [
                0
            ],
            "type": "SCALAR"
        },
        {
            "bufferView": 1,
            "byteOffset": 192,
            "componentType": 5126,
            "count": 8,
            "max": [
                0.777157723903656,
                0.629305899143219,
                0.0
            ],
            "min": [
                -0.7771583795547485,
                -0.6293051242828369,
                0.0
            ],
            "type": "VEC3"
        },
        {
            "bufferView": 1,
            "byteOffset": 288,
            "componentType": 5126,
            "count": 8,
            "max": [
                9.595389366149905,
                4.085700035095215,
                4.286565780639648
            ],
            "min": [
                0.0,
                -5.61870002746582,
                0.0
            ],
            "type": "VEC3"
        },
        {
            "bufferView": 2,
            "byteOffset": 64,
            "componentType": 5126,
            "count": 8,
            "max": [
                0.8544999957084656,
                0.24830001592636109
            ],
            "min": [
                0.667199969291687,
                0.00010001659393310548
            ],
            "type": "VEC2"
        },
        {
            "bufferView": 0,
            "byteOffset": 48,
            "componentType": 5123,
            "count": 6,
            "max": [
                3
            ],
            "min": [
                0
            ],
            "type": "SCALAR"
        },
        {
            "bufferView": 1,
            "byteOffset": 384,
            "componentType": 5126,
            "count": 4,
            "max": [
                0.0,
                0.0,
                1.0
            ],
            "min": [
                0.0,
                0.0,
                1.0
            ],
            "type": "VEC3"
        },
        {
            "bufferView": 1,
            "byteOffset": 432,
            "componentType": 5126,
            "count": 4,
            "max": [
                9.595389366149905,
                4.085700035095215,
                4.286565780639648
            ],
            "min": [
                0.0,
                -5.61870002746582,
                4.286565780639648
            ],
            "type": "VEC3"
        },
        {
            "bufferView": 2,
            "byteOffset": 128,
            "componentType": 5126,
            "count": 4,
            "max": [
                0.7493999600410461,
                0.7062000036239624
            ],
            "min": [
                0.6196999549865723,
                0.5787000060081482
            ],
            "type": "VEC2"
        },
        {
            "bufferView": 0,
            "byteOffset": 60,
            "componentType": 5123,
            "count": 6,
            "max": [
                3
            ],
            "min": [
                0
            ],
            "type": "SCALAR"
        },
        {
            "bufferView": 1,
            "byteOffset": 480,
            "componentType": 5126,
            "count": 4,
            "max": [
                0.0,
                0.0,
                -1.0
            ],
            "min": [
                0.0,
                0.0,
                -1.0
            ],
            "type": "VEC3"
        },
        {
            "bufferView": 1,
            "byteOffset": 528,
            "componentType": 5126,
            "count": 4,
            "max": [
                9.595709800720217,
                4.085999965667725,
                0.0
            ],
            "min": [
                0.0,
                -5.61870002746582,
                0.0
            ],
            "type": "VEC3"
        }
    ],
    "materials": [
        {
            "pbrMetallicRoughness": {
                "baseColorTexture": {
                    "index": 0
                },
                "metallicFactor": 0.0
            },
            "emissiveFactor": [
                0.0,
                0.0,
                0.0
            ],
            "name": "textureAtlas_16136397_1_eff"
        },
        {
            "pbrMetallicRoughness": {
                "baseColorTexture": {
                    "index": 1
                },
                "metallicFactor": 0.0
            },
            "emissiveFactor": [
                0.0,
                0.0,
                0.0
            ],
            "name": "textureAtlas_16136397_2_eff"
        },
        {
            "pbrMetallicRoughness": {
                "baseColorTexture": {
                    "index": 2
                },
                "metallicFactor": 0.0
            },
            "emissiveFactor": [
                0.0,
                0.0,
                0.0
            ],
            "name": "textureAtlas_16136397_0_eff"
        },
        {
            "pbrMetallicRoughness": {
                "baseColorFactor": [
                    0.800000011920929,
                    0.800000011920929,
                    0.800000011920929,
                    1.0
                ],
                "metallicFactor": 0.0
            },
            "emissiveFactor": [
                0.0,
                0.0,
                0.0
            ],
            "name": "default_ai_0.2_sh_0.2_tr_0.0_dc_r_0.8_g_0.8_b_0.8_sc_r_1.0_g_1.0_b_1.0_ec_r_0.0_g_0.0_b_0_eff"
        }
    ],
    "textures": [
        {
            "sampler": 0,
            "source": 0
        },
        {
            "sampler": 0,
            "source": 1
        },
        {
            "sampler": 0,
            "source": 2
        }
    ],
    "images": [
        {
            "uri": "data:image/jpeg;base64,"
        },
        {
            "uri": "data:image/jpeg;base64,"
        },
        {
            "uri": "data:image/jpeg;base64,"
        }
    ],
    "samplers": [
        {
            "magFilter": 9729,
            "minFilter": 9986,
            "wrapS": 10497,
            "wrapT": 10497
        }
    ],
    "bufferViews": [
        {
            "buffer": 0,
            "byteOffset": 736,
            "byteLength": 72,
            "target": 34963
        },
        {
            "buffer": 0,
            "byteOffset": 0,
            "byteLength": 576,
            "byteStride": 12,
            "target": 34962
        },
        {
            "buffer": 0,
            "byteOffset": 576,
            "byteLength": 160,
            "byteStride": 8,
            "target": 34962
        }
    ],
    "buffers": [
        {
            "byteLength": 808,
            "uri": "data:application/octet-stream;base64,"
        }
    ]
}
