{
    "asset": {
        "generator": "COLLADA2GLTF",
        "version": "2.0"
    },
    "scenes": [
        {
            "nodes": [
                0
            ]
        }
    ],
    "scene": 0,
    "nodes": [
        {
            "children": [
                1
            ],
            "matrix": [
                1.0,
                0.0,
                0.0,
                0.0,
                0.0,
                0.0,
                -1.0,
                0.0,
                0.0,
                1.0,
                0.0,
                0.0,
                0.0,
                0.0,
                0.0,
                1.0
            ],
            "name": "Z_UP"
        },
        {
            "mesh": 0
        }
    ],
    "meshes": [
        {
            "primitives": [
                {
                    "attributes": {
                        "NORMAL": 1,
                        "POSITION": 2,
                        "TEXCOORD_0": 3
                    },
                    "indices": 0,
                    "mode": 4,
                    "material": 0
                },
                {
                    "attributes": {
                        "NORMAL": 5,
                        "POSITION": 6,
                        "TEXCOORD_0": 7
                    },
                    "indices": 4,
                    "mode": 4,
                    "material": 1
                },
                {
                    "attributes": {
                        "NORMAL": 9,
                        "POSITION": 10,
                        "TEXCOORD_0": 11
                    },
                    "indices": 8,
                    "mode": 4,
                    "material": 2
                },
                {
                    "attributes": {
                        "NORMAL": 13,
                        "POSITION": 14,
                        "TEXCOORD_0": 15
                    },
                    "indices": 12,
                    "mode": 4,
                    "material": 3
                },
                {
                    "attributes": {
                        "NORMAL": 17,
                        "POSITION": 18,
                        "TEXCOORD_0": 19
                    },
                    "indices": 16,
                    "mode": 4,
                    "material": 4
                },
                {
                    "attributes": {
                        "NORMAL": 21,
                        "POSITION": 22,
                        "TEXCOORD_0": 23
                    },
                    "indices": 20,
                    "mode": 4,
                    "material": 5
                },
                {
                    "attributes": {
                        "NORMAL": 25,
                        "POSITION": 26,
                        "TEXCOORD_0": 27
                    },
                    "indices": 24,
                    "mode": 4,
                    "material": 6
                },
                {
                    "attributes": {
                        "NORMAL": 29,
                        "POSITION": 30
                    },
                    "indices": 28,
                    "mode": 4,
                    "material": 7
                }
            ],
            "name": "geometry0"
        }
    ],
    "accessors": [
        {
            "bufferView": 0,
            "byteOffset": 0,
            "componentType": 5123,
            "count": 6,
            "max": [
                3
            ],
            "min": [
                0
            ],
            "type": "SCALAR"
        },
        {
            "bufferView": 1,
            "byteOffset": 0,
            "componentType": 5126,
            "count": 4,
            "max": [
                0.5756804347038269,
                0.8176748156547546,
                0.0
            ],
            "min": [
                0.5756804347038269,
                0.8176748156547546,
                0.0
            ],
            "type": "VEC3"
        },
        {
            "bufferView": 1,
            "byteOffset": 48,
            "componentType": 5126,
            "count": 4,
            "max": [
                32.1620979309082,
                8.744099617004395,
                32.89759063720703
            ],
            "min": [
                14.254029273986817,
                -3.864000082015991,
                7.842059135437012
            ],
            "type": "VEC3"
        },
        {
            "bufferView": 2,
            "byteOffset": 0,
            "componentType": 5126,
            "count": 4,
            "max": [
                0.28519999980926516,
                0.8925999999046326
            ],
            "min": [
                0.0004999999655410647,
                0.6169999837875366
            ],
            "type": "VEC2"
        },
        {
            "bufferView": 0,
            "byteOffset": 12,
            "componentType": 5123,
            "count": 36,
            "max": [
                23
            ],
            "min": [
                0
            ],
            "type": "SCALAR"
        },
        {
            "bufferView": 1,
            "byteOffset": 96,
            "componentType": 5126,
            "count": 24,
            "max": [
                0.8174849152565002,
                0.5744022130966187,
                0.0
            ],
            "min": [
                -0.8185732364654541,
                -0.8186048865318298,
                0.0
            ],
            "type": "VEC3"
        },
        {
            "bufferView": 1,
            "byteOffset": 384,
            "componentType": 5126,
            "count": 24,
            "max": [
                37.32978820800781,
                -2.697000026702881,
                32.89759063720703
            ],
            "min": [
                5.412839889526367,
                -20.95909881591797,
                1.0000000116860974e-7
            ],
            "type": "VEC3"
        },
        {
            "bufferView": 2,
            "byteOffset": 32,
            "componentType": 5126,
            "count": 24,
            "max": [
                0.8781999945640564,
                0.9194999933242798
            ],
            "min": [
                0.0004999999655410647,
                0.19770002365112306
            ],
            "type": "VEC2"
        },
        {
            "bufferView": 0,
            "byteOffset": 84,
            "componentType": 5123,
            "count": 48,
            "max": [
                31
            ],
            "min": [
                0
            ],
            "type": "SCALAR"
        },
        {
            "bufferView": 1,
            "byteOffset": 672,
            "componentType": 5126,
            "count": 32,
            "max": [
                0.5752193331718445,
                0.8179991841316223,
                0.0
            ],
            "min": [
                -0.8180624842643738,
                -0.8180918097496033,
                0.0
            ],
            "type": "VEC3"
        },
        {
            "bufferView": 1,
            "byteOffset": 1056,
            "componentType": 5126,
            "count": 32,
            "max": [
                23.88313865661621,
                12.557799339294434,
                32.89759063720703
            ],
            "min": [
                -0.49800002574920657,
                -16.79759979248047,
                1.0000000116860974e-7
            ],
            "type": "VEC3"
        },
        {
            "bufferView": 2,
            "byteOffset": 224,
            "componentType": 5126,
            "count": 32,
            "max": [
                0.9399999976158142,
                0.9713000059127808
            ],
            "min": [
                0.00039999998989515007,
                0.28140002489089968
            ],
            "type": "VEC2"
        },
        {
            "bufferView": 0,
            "byteOffset": 180,
            "componentType": 5123,
            "count": 168,
            "max": [
                111
            ],
            "min": [
                0
            ],
            "type": "SCALAR"
        },
        {
            "bufferView": 1,
            "byteOffset": 1440,
            "componentType": 5126,
            "count": 112,
            "max": [
                0.8769816160202026,
                0.9882765412330629,
                0.0
            ],
            "min": [
                0.15267470479011537,
                -0.767578125,
                0.0
            ],
            "type": "VEC3"
        },
        {
            "bufferView": 1,
            "byteOffset": 2784,
            "componentType": 5126,
            "count": 112,
            "max": [
                36.30371856689453,
                13.794000625610352,
                7.842059135437012
            ],
            "min": [
                16.13027000427246,
                -3.864000082015991,
                1.0000000116860974e-7
            ],
            "type": "VEC3"
        },
        {
            "bufferView": 2,
            "byteOffset": 480,
            "componentType": 5126,
            "count": 112,
            "max": [
                0.513700008392334,
                0.9995999932289124
            ],
            "min": [
                0.08489999920129776,
                0.0006000399589538574
            ],
            "type": "VEC2"
        },
        {
            "bufferView": 0,
            "byteOffset": 516,
            "componentType": 5123,
            "count": 102,
            "max": [
                41
            ],
            "min": [
                0
            ],
            "type": "SCALAR"
        },
        {
            "bufferView": 1,
            "byteOffset": 4128,
            "componentType": 5126,
            "count": 42,
            "max": [
                0.8174930214881897,
                0.8171489238739014,
                1.0
            ],
            "min": [
                -0.8179783821105957,
                -0.5759385824203491,
                0.0
            ],
            "type": "VEC3"
        },
        {
            "bufferView": 1,
            "byteOffset": 4632,
            "componentType": 5126,
            "count": 42,
            "max": [
                37.59764862060547,
                13.794000625610352,
                32.89759063720703
            ],
            "min": [
                0.0,
                -18.930599212646489,
                1.0000000116860974e-7
            ],
            "type": "VEC3"
        },
        {
            "bufferView": 2,
            "byteOffset": 1376,
            "componentType": 5126,
            "count": 42,
            "max": [
                0.9393999576568604,
                0.9426000118255616
            ],
            "min": [
                0.2578999996185303,
                0.38530004024505618
            ],
            "type": "VEC2"
        },
        {
            "bufferView": 0,
            "byteOffset": 720,
            "componentType": 5123,
            "count": 60,
            "max": [
                21
            ],
            "min": [
                0
            ],
            "type": "SCALAR"
        },
        {
            "bufferView": 1,
            "byteOffset": 5136,
            "componentType": 5126,
            "count": 22,
            "max": [
                0.0,
                0.0,
                1.0
            ],
            "min": [
                0.0,
                0.0,
                1.0
            ],
            "type": "VEC3"
        },
        {
            "bufferView": 1,
            "byteOffset": 5400,
            "componentType": 5126,
            "count": 22,
            "max": [
                37.59764862060547,
                12.557799339294434,
                32.89759063720703
            ],
            "min": [
                -0.49800002574920657,
                -20.95909881591797,
                32.89759063720703
            ],
            "type": "VEC3"
        },
        {
            "bufferView": 2,
            "byteOffset": 1712,
            "componentType": 5126,
            "count": 22,
            "max": [
                0.457099974155426,
                0.5197999477386475
            ],
            "min": [
                0.0007999999797903001,
                0.0006999969482421875
            ],
            "type": "VEC2"
        },
        {
            "bufferView": 0,
            "byteOffset": 840,
            "componentType": 5123,
            "count": 30,
            "max": [
                19
            ],
            "min": [
                0
            ],
            "type": "SCALAR"
        },
        {
            "bufferView": 1,
            "byteOffset": 5664,
            "componentType": 5126,
            "count": 20,
            "max": [
                0.8185735940933228,
                0.3482783138751984,
                0.0
            ],
            "min": [
                -0.9373912215232848,
                -0.5759416818618774,
                0.0
            ],
            "type": "VEC3"
        },
        {
            "bufferView": 1,
            "byteOffset": 5904,
            "componentType": 5126,
            "count": 20,
            "max": [
                37.59764862060547,
                13.794000625610352,
                32.89759063720703
            ],
            "min": [
                14.254029273986817,
                -20.95909881591797,
                1.0000000116860974e-7
            ],
            "type": "VEC3"
        },
        {
            "bufferView": 2,
            "byteOffset": 1888,
            "componentType": 5126,
            "count": 20,
            "max": [
                0.4617999792098999,
                0.8677999973297119
            ],
            "min": [
                0.12429999560117722,
                0.1381000280380249
            ],
            "type": "VEC2"
        },
        {
            "bufferView": 0,
            "byteOffset": 900,
            "componentType": 5123,
            "count": 144,
            "max": [
                49
            ],
            "min": [
                0
            ],
            "type": "SCALAR"
        },
        {
            "bufferView": 1,
            "byteOffset": 6144,
            "componentType": 5126,
            "count": 50,
            "max": [
                0.0,
                0.0,
                -1.0
            ],
            "min": [
                0.0,
                0.0,
                -1.0
            ],
            "type": "VEC3"
        },
        {
            "bufferView": 1,
            "byteOffset": 6744,
            "componentType": 5126,
            "count": 50,
            "max": [
                37.59764862060547,
                13.794000625610352,
                1.0000000116860974e-7
            ],
            "min": [
                -0.49800002574920657,
                -20.95909881591797,
                1.0000000116860974e-7
            ],
            "type": "VEC3"
        }
    ],
    "materials": [
        {
            "pbrMetallicRoughness": {
                "baseColorTexture": {
                    "index": 0
                },
                "metallicFactor": 0.0
            },
            "emissiveFactor": [
                0.0,
                0.0,
                0.0
            ],
            "name": "textureAtlas_23116658_2_eff"
        },
        {
            "pbrMetallicRoughness": {
                "baseColorTexture": {
                    "index": 1
                },
                "metallicFactor": 0.0
            },
            "emissiveFactor": [
                0.0,
                0.0,
                0.0
            ],
            "name": "textureAtlas_23116658_4_eff"
        },
        {
            "pbrMetallicRoughness": {
                "baseColorTexture": {
                    "index": 2
                },
                "metallicFactor": 0.0
            },
            "emissiveFactor": [
                0.0,
                0.0,
                0.0
            ],
            "name": "textureAtlas_23116658_1_eff"
        },
        {
            "pbrMetallicRoughness": {
                "baseColorTexture": {
                    "index": 3
                },
                "metallicFactor": 0.0
            },
            "emissiveFactor": [
                0.0,
                0.0,
                0.0
            ],
            "name": "textureAtlas_23116658_5_eff"
        },
        {
            "pbrMetallicRoughness": {
                "baseColorTexture": {
                    "index": 4
                },
                "metallicFactor": 0.0
            },
            "emissiveFactor": [
                0.0,
                0.0,
                0.0
            ],
            "name": "textureAtlas_23116658_0_eff"
        },
        {
            "pbrMetallicRoughness": {
                "baseColorTexture": {
                    "index": 5
                },
                "metallicFactor": 0.0
            },
            "emissiveFactor": [
                0.0,
                0.0,
                0.0
            ],
            "name": "textureAtlas_23116658_6_eff"
        },
        {
            "pbrMetallicRoughness": {
                "baseColorTexture": {
                    "index": 6
                },
                "metallicFactor": 0.0
            },
            "emissiveFactor": [
                0.0,
                0.0,
                0.0
            ],
            "name": "textureAtlas_23116658_3_eff"
        },
        {
            "pbrMetallicRoughness": {
                "baseColorFactor": [
                    0.800000011920929,
                    0.800000011920929,
                    0.800000011920929,
                    1.0
                ],
                "metallicFactor": 0.0
            },
            "emissiveFactor": [
                0.0,
                0.0,
                0.0
            ],
            "name": "default_ai_0.2_sh_0.2_tr_0.0_dc_r_0.8_g_0.8_b_0.8_sc_r_1.0_g_1.0_b_1.0_ec_r_0.0_g_0.0_b_0_eff"
        }
    ],
    "textures": [
        {
            "sampler": 0,
            "source": 0
        },
        {
            "sampler": 0,
            "source": 1
        },
        {
            "sampler": 0,
            "source": 2
        },
        {
            "sampler": 0,
            "source": 3
        },
        {
            "sampler": 0,
            "source": 4
        },
        {
            "sampler": 0,
            "source": 5
        },
        {
            "sampler": 0,
            "source": 6
        }
    ],
    "images": [
        {
            "uri": "data:image/jpeg;base64,"
        },
        {
            "uri": "data:image/jpeg;base64,"
        },
        {
            "uri": "data:image/jpeg;base64,"
        },
        {
            "uri": "data:image/jpeg;base64,"
        },
        {
            "uri": "data:image/jpeg;base64,"
        },
        {
            "uri": "data:image/jpeg;base64,"
        },
        {
            "uri": "data:image/jpeg;base64,"
        }
    ],
    "samplers": [
        {
            "magFilter": 9729,
            "minFilter": 9986,
            "wrapS": 10497,
            "wrapT": 10497
        }
    ],
    "bufferViews": [
        {
            "buffer": 0,
            "byteOffset": 9392,
            "byteLength": 1188,
            "target": 34963
        },
        {
            "buffer": 0,
            "byteOffset": 0,
            "byteLength": 7344,
            "byteStride": 12,
            "target": 34962
        },
        {
            "buffer": 0,
            "byteOffset": 7344,
            "byteLength": 2048,
            "byteStride": 8,
            "target": 34962
        }
    ],
    "buffers": [
        {
            "byteLength": 10580,
            "uri": "data:application/octet-stream;base64,"
        }
    ]
}
